<svg width="52" height="52" viewBox="0 0 52 52" fill="none" xmlns="http://www.w3.org/2000/svg">
<rect x="1" y="1" width="50" height="50" rx="25" stroke="#CDCDCD" stroke-width="2"/>
<path d="M25.8965 41.709C24.0775 41.709 22.3301 41.3509 20.6543 40.6348C18.9928 39.9186 17.5176 38.8874 16.2285 37.541C14.9538 36.1947 13.9368 34.5547 13.1777 32.6211C12.4186 30.6732 12.0391 28.4818 12.0391 26.0469C12.0391 23.612 12.4115 21.4062 13.1562 19.4297C13.901 17.4388 14.9323 15.7272 16.25 14.2949C17.5534 12.877 19.0931 11.7812 20.8691 11.0078C22.6452 10.2344 24.543 9.84766 26.5625 9.84766C28.0664 9.84766 29.4271 10.0339 30.6445 10.4062C31.862 10.7786 33.0221 11.3014 34.125 11.9746L35.0059 10.5137H36.7246L36.918 21.3848H35.1562C34.9271 20.3249 34.5833 19.179 34.125 17.9473C33.6667 16.7012 33.1296 15.6484 32.5137 14.7891C31.8262 13.8151 31.0098 13.056 30.0645 12.5117C29.1191 11.9531 28.0378 11.6738 26.8203 11.6738C25.431 11.6738 24.1348 11.9818 22.9316 12.5977C21.7428 13.2135 20.7116 14.123 19.8379 15.3262C19.0072 16.4863 18.3555 17.9616 17.8828 19.752C17.4102 21.5423 17.1738 23.5404 17.1738 25.7461C17.1738 27.694 17.4173 29.4844 17.9043 31.1172C18.4056 32.7357 19.1146 34.1608 20.0312 35.3926C20.9479 36.61 22.0293 37.5625 23.2754 38.25C24.5358 38.9375 25.9395 39.2812 27.4863 39.2812C28.6465 39.2812 29.7135 39.1022 30.6875 38.7441C31.6615 38.3717 32.5065 37.8848 33.2227 37.2832C33.9388 36.653 34.569 35.9368 35.1133 35.1348C35.6576 34.3327 36.1016 33.459 36.4453 32.5137L38.0566 33.2871C36.8249 36.3092 35.1921 38.472 33.1582 39.7754C31.1243 41.0645 28.7038 41.709 25.8965 41.709Z" fill="#F1CDB3"/>
</svg>
